# xmcd
#
# Track frame offsets:
#       150
#       17754
#       31169
#       43371
#       57810
#       71000
#       93463
#       116951
#       125936
#       147412
#       163184
#       177813
#       198017
#       221294
#       236206
#       253477
#       267839
#       282836
#       295938
#
# Disc length: 4309 seconds
#
# Revision: 2
# Processed by: cddbd v1.5.1PL0 Copyright (c) Steve Scherf et al.
# Submitted via: WhereIsIt 3.52
#
DISCID=2f10d313
DTITLE=Various Artist - 100% Blues Collection 2
DYEAR=2000
DGENRE=Blues
TTITLE0=RAY CHARLES - Strong  Love Affair
TTITLE1=GARRY MOORE - Too Tired
TTITLE2=ANIMALS - Bring In On Home To Me
TTITLE3=CHARLES BROWN - Nobody Knows The Trouble
TTITLE4=THE NYLONS - So Long
TTITLE5=LONG JOHN HUNTER - Trouble On The Line
TTITLE6=SANTANA - One With You
TTITLE7=TONY McPHEE - When You Got A Good Friend
TTITLE8=LUCKY PETERSON - Who's Been Talking
TTITLE9=JETHRO TULL - Song For Jeffrey
TTITLE10=CANNED HEAT - Rollin And Tumblin
TTITLE11=THE NOTHING HILLBILIES - Your Own Sweet Way
TTITLE12=BUTHER SMITH - Live And Sing The Blues
TTITLE13=ERIC BURDON BAND - I't Hurts Me Too
TTITLE14=THE JEFF HEALEY BAND - While My Guitar
TTITLE15=BONE WALKER - That Evening Train
TTITLE16=HUMBIE PIE - Growing Closer
TTITLE17=ETTA JAMES - Spoonful
TTITLE18=PETER GREEN - Just Another Guy
EXTD=
EXTT0=
EXTT1=
EXTT2=
EXTT3=
EXTT4=
EXTT5=
EXTT6=
EXTT7=
EXTT8=
EXTT9=
EXTT10=
EXTT11=
EXTT12=
EXTT13=
EXTT14=
EXTT15=
EXTT16=
EXTT17=
EXTT18=
PLAYORDER=
